<svg xmlns="http://www.w3.org/2000/svg" width="1200" height="900" viewBox="0 0 1200 900">
  <defs>
    <linearGradient id="night" x1="0" y1="0" x2="0" y2="1">
      <stop offset="0" stop-color="#0b1026"/>
      <stop offset="0.6" stop-color="#1c2951"/>
      <stop offset="1" stop-color="#31487a"/>
    </linearGradient>
    <radialGradient id="moon" cx="0.5" cy="0.5" r="0.5">
      <stop offset="0" stop-color="#fffbe6"/>
      <stop offset="0.7" stop-color="#f4ecc2"/>
      <stop offset="1" stop-color="#d9cf9a"/>
    </radialGradient>
  </defs>
  <rect width="1200" height="900" fill="url(#night)"/>
  <circle cx="920" cy="200" r="90" fill="url(#moon)"/>
  <circle cx="890" cy="180" r="14" fill="#d9cf9a" opacity="0.6"/>
  <circle cx="950" cy="230" r="10" fill="#d9cf9a" opacity="0.6"/>
  <circle cx="930" cy="160" r="7" fill="#d9cf9a" opacity="0.5"/>
  <g fill="#fff">
    <circle cx="100" cy="120" r="3"/><circle cx="240" cy="80" r="2"/>
    <circle cx="380" cy="160" r="2.5"/><circle cx="520" cy="90" r="2"/>
    <circle cx="660" cy="140" r="3"/><circle cx="760" cy="60" r="2"/>
    <circle cx="1100" cy="100" r="2.5"/><circle cx="1160" cy="300" r="2"/>
    <circle cx="60" cy="300" r="2"/><circle cx="180" cy="240" r="2.5"/>
    <circle cx="430" cy="280" r="2"/><circle cx="580" cy="220" r="2.5"/>
    <circle cx="700" cy="320" r="2"/><circle cx="300" cy="380" r="2"/>
    <circle cx="480" cy="30" r="2"/><circle cx="820" cy="260" r="2.5"/>
  </g>
  <path d="M200 340 l8 18 20 3 -14 14 3 20 -17 -9 -17 9 3 -20 -14 -14 20 -3 Z" fill="#ffe9a8"/>
  <g fill="#0a0f1e">
    <path d="M0 900 L0 640 Q180 520 360 620 Q520 700 700 600 Q900 500 1200 640 L1200 900 Z"/>
  </g>
  <g fill="#101a35">
    <path d="M0 900 L0 740 Q240 660 480 740 Q720 820 1200 720 L1200 900 Z"/>
  </g>
  <g fill="#ffe9a8">
    <rect x="150" y="700" width="10" height="14" rx="2"/>
    <rect x="330" y="672" width="10" height="14" rx="2"/>
    <rect x="560" y="688" width="10" height="14" rx="2"/>
    <rect x="820" y="640" width="10" height="14" rx="2"/>
    <rect x="1010" y="672" width="10" height="14" rx="2"/>
  </g>
  <g stroke="#2c3e6b" stroke-width="4" fill="none" opacity="0.9">
    <path d="M340 620 v-60 m0 0 q-24 -8 -24 -34 q0 -26 24 -30 q4 -28 30 -28 q26 0 30 28 q24 4 24 30 q0 26 -24 34 q-14 6 -30 0"/>
  </g>
</svg>
